<svg xmlns="http://www.w3.org/2000/svg" width="60" height="60" viewBox="0 0 60 60">
  <g id="behance_footer" transform="translate(-1549 -58)">
    <circle id="Ellipse_3" data-name="Ellipse 3" cx="30" cy="30" r="30" transform="translate(1549 58)" fill="#d5d5d5"/>
    <path id="Icon_awesome-behance" data-name="Icon awesome-behance" d="M12.082,13.728A3.952,3.952,0,0,0,14.6,9.874C14.6,6.2,11.863,5.3,8.7,5.3H0V23.758H8.947c3.354,0,6.5-1.609,6.5-5.359a4.447,4.447,0,0,0-3.369-4.671ZM4.057,8.452H7.864c1.463,0,2.781.411,2.781,2.109,0,1.568-1.026,2.2-2.474,2.2H4.057V8.452Zm4.338,12.17H4.057V15.54H8.478c1.786,0,2.916.745,2.916,2.635C11.395,20.039,10.046,20.623,8.395,20.623ZM27.065,8.088H19.581V6.27h7.484V8.088ZM30,17.269c0-3.953-2.312-7.249-6.5-7.249a6.716,6.716,0,0,0-6.838,7.072c0,4.161,2.619,7.015,6.838,7.015a5.958,5.958,0,0,0,6.254-4.494H26.507a3.041,3.041,0,0,1-2.9,1.745c-2.151,0-3.281-1.26-3.281-3.4h9.64C29.981,17.738,30,17.5,30,17.269Zm-9.666-1.625a2.868,2.868,0,0,1,3.047-2.854c1.844,0,2.771,1.083,2.927,2.854Z" transform="translate(1563.613 73.698)" fill="#747474"/>
  </g>
</svg>
