<svg xmlns="http://www.w3.org/2000/svg" width="39" height="32" viewBox="0 0 39 32">
  <g id="behance_icon_filled" transform="translate(-1515.062 -67.933)">
    <rect id="Rectangle_18" data-name="Rectangle 18" width="39" height="32" transform="translate(1515.062 67.933)" fill="none"/>
    <path id="behancefilled" d="M14.682,15.541a4.8,4.8,0,0,0,3.063-4.683c0-4.468-3.329-5.557-7.17-5.557H0V27.73H10.873c4.076,0,7.9-1.956,7.9-6.512a5.4,5.4,0,0,0-4.095-5.677ZM4.93,9.13H9.556c1.778,0,3.379.5,3.379,2.563,0,1.9-1.247,2.671-3.006,2.671h-5V9.13ZM10.2,23.92H4.93V17.744H10.3c2.171,0,3.544.9,3.544,3.2,0,2.266-1.639,2.974-3.645,2.974ZM32.89,8.687H23.8V6.479H32.89V8.687Zm3.563,11.157c0-4.8-2.81-8.809-7.9-8.809-4.949,0-8.309,3.721-8.309,8.594,0,5.057,3.183,8.525,8.309,8.525,3.879,0,6.392-1.747,7.6-5.462H32.213c-.424,1.386-2.171,2.12-3.525,2.12-2.614,0-3.987-1.532-3.987-4.133H36.415C36.434,20.414,36.453,20.129,36.453,19.845ZM24.707,17.87a3.486,3.486,0,0,1,3.7-3.468c2.24,0,3.367,1.316,3.557,3.468Z" transform="translate(1516.613 67.698)" fill="#023960"/>
  </g>
</svg>
