<svg xmlns="http://www.w3.org/2000/svg" width="40.587" height="25.445" viewBox="0 0 40.587 25.445">
  <path id="Icon_awesome-behance" data-name="Icon awesome-behance" d="M16.348,16.7a5.347,5.347,0,0,0,3.41-5.214c0-4.975-3.706-6.187-7.984-6.187H0V30.274H12.106c4.538,0,8.8-2.177,8.8-7.251,0-3.136-1.487-5.454-4.559-6.321ZM5.489,9.565H10.64c1.98,0,3.763.557,3.763,2.854,0,2.121-1.388,2.974-3.347,2.974H5.489V9.565Zm5.87,16.467H5.489V19.155h5.982c2.417,0,3.946,1.008,3.946,3.565,0,2.523-1.825,3.312-4.059,3.312ZM36.62,9.071H26.494V6.612H36.62V9.071Zm3.967,12.423c0-5.348-3.129-9.809-8.8-9.809-5.51,0-9.252,4.143-9.252,9.569,0,5.63,3.544,9.492,9.252,9.492,4.319,0,7.117-1.945,8.463-6.081H35.866c-.472,1.543-2.417,2.361-3.925,2.361-2.91,0-4.439-1.705-4.439-4.6H40.545C40.566,22.128,40.587,21.811,40.587,21.494ZM27.509,19.3a3.881,3.881,0,0,1,4.122-3.861c2.494,0,3.749,1.466,3.96,3.861Z" transform="translate(0 -5.302)" fill="#d5d5d5"/>
</svg>
