<svg xmlns="http://www.w3.org/2000/svg" width="60" height="60" viewBox="0 0 60 60">
  <g id="email_footer" transform="translate(-1675 -58)">
    <circle id="Ellipse_1" data-name="Ellipse 1" cx="30" cy="30" r="30" transform="translate(1675 58)" fill="#d5d5d5"/>
    <path id="Icon_zocial-email" data-name="Icon zocial-email" d="M.072,21.33V5.745q0-.027.081-.514l9.172,7.846L.18,21.871a2.293,2.293,0,0,1-.108-.541ZM1.29,4.149a1.166,1.166,0,0,1,.46-.081h24.7a1.532,1.532,0,0,1,.487.081l-9.2,7.873L16.522,13l-2.408,1.975L11.706,13l-1.218-.974Zm.027,18.777,9.226-8.847,3.571,2.895,3.571-2.895,9.226,8.847a1.3,1.3,0,0,1-.46.081H1.749a1.225,1.225,0,0,1-.433-.081ZM18.9,13.078l9.145-7.846a1.615,1.615,0,0,1,.081.514V21.33a2.074,2.074,0,0,1-.081.541Z" transform="translate(1691.203 74.193)" fill="#747474"/>
  </g>
</svg>
