<svg xmlns="http://www.w3.org/2000/svg" width="39" height="32" viewBox="0 0 39 32">
  <g id="email_icon_filled" transform="translate(-1675.247 -71.009)">
    <rect id="Rectangle_20" data-name="Rectangle 20" width="39" height="32" transform="translate(1675.247 71.009)" fill="#fff"/>
    <path id="emailfilled" d="M.072,25.958V6.2q0-.034.1-.652l11.631,9.95L.209,26.644a2.908,2.908,0,0,1-.137-.686ZM1.616,4.171a1.479,1.479,0,0,1,.583-.1H33.524a1.943,1.943,0,0,1,.618.1L22.476,14.155,20.932,15.39l-3.054,2.5-3.054-2.5-1.544-1.235ZM1.65,27.982l11.7-11.219,4.529,3.671,4.529-3.671,11.7,11.219a1.647,1.647,0,0,1-.583.1H2.2a1.554,1.554,0,0,1-.549-.1Zm22.3-12.489,11.6-9.95a2.048,2.048,0,0,1,.1.652V25.958a2.63,2.63,0,0,1-.1.686Z" transform="translate(1677.2 70.932)" fill="#023960"/>
  </g>
</svg>
