<svg xmlns="http://www.w3.org/2000/svg" width="39" height="32" viewBox="0 0 39 32">
  <g id="linkedin_icon_filled" transform="translate(-1606 -143.843)">
    <rect id="Rectangle_19" data-name="Rectangle 19" width="39" height="32" transform="translate(1606 143.843)" fill="none"/>
    <path id="linkedinfilled" d="M5.116,22.856H.378V7.6H5.116ZM2.744,5.515a2.757,2.757,0,1,1,2.744-2.77A2.767,2.767,0,0,1,2.744,5.515ZM22.851,22.856H18.123V15.428c0-1.77-.036-4.041-2.464-4.041-2.464,0-2.841,1.923-2.841,3.913v7.556H8.084V7.6h4.545V9.678H12.7a4.979,4.979,0,0,1,4.483-2.464c4.8,0,5.677,3.158,5.677,7.26v8.382Z" transform="translate(1614.487 148.486)" fill="#023960"/>
  </g>
</svg>
