<svg xmlns="http://www.w3.org/2000/svg" width="60" height="60" viewBox="0 0 60 60">
  <g id="linkedin_footer" transform="translate(-1616 -58)">
    <circle id="Ellipse_2" data-name="Ellipse 2" cx="30" cy="30" r="30" transform="translate(1616 58)" fill="#d5d5d5"/>
    <path id="Icon_awesome-linkedin-in" data-name="Icon awesome-linkedin-in" d="M4.223,18.868H.312V6.271H4.223ZM2.265,4.553A2.276,2.276,0,1,1,4.531,2.266,2.284,2.284,0,0,1,2.265,4.553Zm16.6,14.315h-3.9V12.736c0-1.461-.029-3.336-2.034-3.336-2.034,0-2.345,1.588-2.345,3.23v6.237H6.674V6.271h3.752V7.99h.055a4.11,4.11,0,0,1,3.7-2.034c3.959,0,4.687,2.607,4.687,5.993v6.92Z" transform="translate(1636.326 78.631)" fill="#747474"/>
  </g>
</svg>
