<svg xmlns="http://www.w3.org/2000/svg" width="60" height="60" viewBox="0 0 60 60">
  <g id="linkedin_icon_footer" transform="translate(-1616 -58)">
    <circle id="Ellipse_2" data-name="Ellipse 2" cx="30" cy="30" r="30" transform="translate(1616 58)" fill="#d5d5d5"/>
    <path id="Icon_awesome-linkedin-in" data-name="Icon awesome-linkedin-in" d="M5.708,25.5H.421V8.475H5.708ZM3.062,6.153A3.076,3.076,0,1,1,6.123,3.062,3.088,3.088,0,0,1,3.062,6.153ZM25.494,25.5H20.219V17.213c0-1.975-.04-4.508-2.749-4.508-2.749,0-3.17,2.146-3.17,4.366V25.5H9.019V8.475h5.07V10.8h.074a5.555,5.555,0,0,1,5-2.749c5.35,0,6.334,3.523,6.334,8.1V25.5Z" transform="translate(1633 74.999)" fill="#747474"/>
  </g>
</svg>
