<svg xmlns="http://www.w3.org/2000/svg" width="77.66" height="30" viewBox="0 0 77.66 30">
  <g id="linkedin_icon_header1" transform="translate(-1588 -43)">
    <rect id="Rectangle_16" data-name="Rectangle 16" width="77.66" height="30" transform="translate(1588 43)" fill="#fff"/>
    <path id="Icon_awesome-linkedin-in" data-name="Icon awesome-linkedin-in" d="M5.708,25.5H.421V8.475H5.708ZM3.062,6.153A3.076,3.076,0,1,1,6.123,3.062,3.088,3.088,0,0,1,3.062,6.153ZM25.494,25.5H20.219V17.213c0-1.975-.04-4.508-2.749-4.508-2.749,0-3.17,2.146-3.17,4.366V25.5H9.019V8.475h5.07V10.8h.074a5.555,5.555,0,0,1,5-2.749c5.35,0,6.334,3.523,6.334,8.1V25.5Z" transform="translate(1614 44.999)" fill="#d5d5d5"/>
  </g>
</svg>
