<?xml version="1.0" standalone="no"?>
<!DOCTYPE svg PUBLIC "-//W3C//DTD SVG 20010904//EN"
 "http://www.w3.org/TR/2001/REC-SVG-20010904/DTD/svg10.dtd">
<svg version="1.0" xmlns="http://www.w3.org/2000/svg"
 width="580.000000pt" height="580.000000pt" viewBox="0 0 580.000000 580.000000"
 preserveAspectRatio="xMidYMid meet">
<metadata>
Created by potrace 1.11, written by Peter Selinger 2001-2013
</metadata>
<g transform="translate(0.000000,580.000000) scale(0.100000,-0.100000)"
fill="#000000" stroke="none">
<path d="M4105 3914 c-271 -27 -486 -127 -641 -297 -90 -99 -168 -247 -203
-383 -35 -136 -33 -361 5 -508 67 -260 259 -481 509 -585 158 -66 208 -75 445
-75 190 -1 227 2 319 22 109 25 250 71 314 103 l37 19 0 465 0 465 -365 0
-365 0 0 -170 0 -170 170 0 170 0 -2 -162 -3 -162 -60 -19 c-81 -25 -232 -33
-323 -17 -102 17 -215 75 -279 143 -93 98 -133 203 -140 367 -9 195 36 321
156 441 185 184 482 201 697 39 l64 -49 127 145 c71 80 129 149 131 154 9 25
-188 140 -307 179 -125 41 -339 66 -456 55z"/>
<path d="M930 2985 l0 -885 201 0 201 0 -6 628 c-6 611 -6 626 12 587 10 -22
112 -304 228 -627 l209 -588 150 0 150 0 229 625 c126 344 232 625 234 625 3
0 3 -281 0 -625 l-5 -625 208 0 209 0 0 885 0 885 -309 0 -309 0 -162 -482
c-195 -578 -220 -648 -228 -648 -4 0 -97 254 -207 565 l-200 565 -302 0 -303
0 0 -885z"/>
</g>
</svg>
