<svg xmlns="http://www.w3.org/2000/svg" width="58" height="58" viewBox="0 0 58 58">
  <g id="up_arrow" transform="translate(-1748 -1158.554)">
    <circle id="Ellipse_4" data-name="Ellipse 4" cx="29" cy="29" r="29" transform="translate(1748 1158.554)" fill="#d5d5d5" opacity="0.397"/>
    <path id="Icon_awesome-arrow-up" data-name="Icon awesome-arrow-up" d="M2.9,24.307,1,22.405a2.047,2.047,0,0,1,0-2.9L17.644,2.85a2.047,2.047,0,0,1,2.9,0L37.19,19.493a2.047,2.047,0,0,1,0,2.9l-1.9,1.9a2.058,2.058,0,0,1-2.938-.034L22.526,13.951V38.568a2.051,2.051,0,0,1-2.056,2.056H17.729a2.051,2.051,0,0,1-2.056-2.056V13.951L5.841,24.273a2.043,2.043,0,0,1-2.938.034Z" transform="translate(1758.035 1166.439)" fill="#747474"/>
  </g>
</svg>
